<mxfile host="app.diagrams.net" modified="2022-06-20T07:32:42.132Z" agent="5.0 (Windows NT 10.0; Win64; x64) AppleWebKit/537.36 (KHTML, like Gecko) Chrome/100.0.4896.127 Safari/537.36" etag="PpB_3mCVYKfSUu4kcg4z" version="20.0.1" type="github">
  <diagram id="kgpKYQtTHZ0yAKxKKP6v" name="Page-1">
    <mxGraphModel dx="1483" dy="701" grid="1" gridSize="10" guides="1" tooltips="1" connect="1" arrows="1" fold="1" page="1" pageScale="1" pageWidth="850" pageHeight="1100" math="0" shadow="0">
      <root>
        <mxCell id="0" />
        <mxCell id="1" parent="0" />
        <mxCell id="3nuBFxr9cyL0pnOWT2aG-1" value="平台访问接口" style="shape=umlLifeline;perimeter=lifelinePerimeter;container=1;collapsible=0;recursiveResize=0;rounded=0;shadow=0;strokeWidth=1;" parent="1" vertex="1">
          <mxGeometry x="120" y="80" width="100" height="300" as="geometry" />
        </mxCell>
        <mxCell id="3nuBFxr9cyL0pnOWT2aG-2" value="" style="points=[];perimeter=orthogonalPerimeter;rounded=0;shadow=0;strokeWidth=1;" parent="3nuBFxr9cyL0pnOWT2aG-1" vertex="1">
          <mxGeometry x="45" y="70" width="10" height="220" as="geometry" />
        </mxCell>
        <mxCell id="sE7RtL886GrFwcUDmTVV-12" value="数据源监控信息查询" style="html=1;verticalAlign=bottom;endArrow=block;rounded=0;" parent="3nuBFxr9cyL0pnOWT2aG-1" target="sE7RtL886GrFwcUDmTVV-10" edge="1">
          <mxGeometry width="80" relative="1" as="geometry">
            <mxPoint x="50" y="80" as="sourcePoint" />
            <mxPoint x="130" y="80" as="targetPoint" />
          </mxGeometry>
        </mxCell>
        <mxCell id="3nuBFxr9cyL0pnOWT2aG-5" value="数据源性能信息统计模块" style="shape=umlLifeline;perimeter=lifelinePerimeter;container=1;collapsible=0;recursiveResize=0;rounded=0;shadow=0;strokeWidth=1;" parent="1" vertex="1">
          <mxGeometry x="500" y="80" width="140" height="300" as="geometry" />
        </mxCell>
        <mxCell id="3nuBFxr9cyL0pnOWT2aG-6" value="" style="points=[];perimeter=orthogonalPerimeter;rounded=0;shadow=0;strokeWidth=1;" parent="3nuBFxr9cyL0pnOWT2aG-5" vertex="1">
          <mxGeometry x="65" y="180" width="10" height="100" as="geometry" />
        </mxCell>
        <mxCell id="FTmbvxLNtihJsYFcyBBe-5" value="监控信息获取" style="html=1;verticalAlign=bottom;endArrow=block;rounded=0;" edge="1" parent="3nuBFxr9cyL0pnOWT2aG-5" target="FTmbvxLNtihJsYFcyBBe-3">
          <mxGeometry width="80" relative="1" as="geometry">
            <mxPoint x="70" y="200" as="sourcePoint" />
            <mxPoint x="150" y="200" as="targetPoint" />
          </mxGeometry>
        </mxCell>
        <mxCell id="sE7RtL886GrFwcUDmTVV-4" value="数据源性能信息统计模块" style="shape=umlLifeline;perimeter=lifelinePerimeter;container=1;collapsible=0;recursiveResize=0;rounded=0;shadow=0;strokeWidth=1;" parent="1" vertex="1">
          <mxGeometry x="190" y="480" width="140" height="510" as="geometry" />
        </mxCell>
        <mxCell id="sE7RtL886GrFwcUDmTVV-5" value="" style="points=[];perimeter=orthogonalPerimeter;rounded=0;shadow=0;strokeWidth=1;" parent="sE7RtL886GrFwcUDmTVV-4" vertex="1">
          <mxGeometry x="65" y="80" width="10" height="340" as="geometry" />
        </mxCell>
        <mxCell id="FTmbvxLNtihJsYFcyBBe-31" value="监控信息持久化" style="html=1;verticalAlign=bottom;endArrow=block;rounded=0;" edge="1" parent="sE7RtL886GrFwcUDmTVV-4" target="FTmbvxLNtihJsYFcyBBe-22">
          <mxGeometry width="80" relative="1" as="geometry">
            <mxPoint x="70" y="410" as="sourcePoint" />
            <mxPoint x="150" y="410" as="targetPoint" />
          </mxGeometry>
        </mxCell>
        <mxCell id="sE7RtL886GrFwcUDmTVV-7" value="分散数据库信息采集聚合模块" style="shape=umlLifeline;perimeter=lifelinePerimeter;container=1;collapsible=0;recursiveResize=0;rounded=0;shadow=0;strokeWidth=1;" parent="1" vertex="1">
          <mxGeometry x="400" y="480" width="169" height="510" as="geometry" />
        </mxCell>
        <mxCell id="sE7RtL886GrFwcUDmTVV-8" value="" style="points=[];perimeter=orthogonalPerimeter;rounded=0;shadow=0;strokeWidth=1;" parent="sE7RtL886GrFwcUDmTVV-7" vertex="1">
          <mxGeometry x="80" y="97" width="10" height="283" as="geometry" />
        </mxCell>
        <mxCell id="FTmbvxLNtihJsYFcyBBe-7" value="监控信息统计" style="html=1;verticalAlign=bottom;endArrow=block;rounded=0;" edge="1" parent="sE7RtL886GrFwcUDmTVV-7">
          <mxGeometry width="80" relative="1" as="geometry">
            <mxPoint x="-134.5" y="99" as="sourcePoint" />
            <mxPoint x="90" y="99" as="targetPoint" />
          </mxGeometry>
        </mxCell>
        <mxCell id="FTmbvxLNtihJsYFcyBBe-8" value="监控信息统计" style="html=1;verticalAlign=bottom;endArrow=block;rounded=0;" edge="1" parent="sE7RtL886GrFwcUDmTVV-7" target="FTmbvxLNtihJsYFcyBBe-1">
          <mxGeometry width="80" relative="1" as="geometry">
            <mxPoint x="90" y="110" as="sourcePoint" />
            <mxPoint x="170" y="110" as="targetPoint" />
          </mxGeometry>
        </mxCell>
        <mxCell id="FTmbvxLNtihJsYFcyBBe-16" value="监控信息" style="html=1;verticalAlign=bottom;endArrow=open;dashed=1;endSize=8;rounded=0;" edge="1" parent="sE7RtL886GrFwcUDmTVV-7">
          <mxGeometry relative="1" as="geometry">
            <mxPoint x="80" y="375" as="sourcePoint" />
            <mxPoint x="-140.5" y="375" as="targetPoint" />
          </mxGeometry>
        </mxCell>
        <mxCell id="FTmbvxLNtihJsYFcyBBe-20" value="" style="html=1;points=[];perimeter=orthogonalPerimeter;" vertex="1" parent="sE7RtL886GrFwcUDmTVV-7">
          <mxGeometry x="85" y="320" width="10" height="40" as="geometry" />
        </mxCell>
        <mxCell id="FTmbvxLNtihJsYFcyBBe-21" value="连接池性能统计" style="edgeStyle=orthogonalEdgeStyle;html=1;align=left;spacingLeft=2;endArrow=block;rounded=0;entryX=1;entryY=0;" edge="1" target="FTmbvxLNtihJsYFcyBBe-20" parent="sE7RtL886GrFwcUDmTVV-7">
          <mxGeometry relative="1" as="geometry">
            <mxPoint x="90" y="300" as="sourcePoint" />
            <Array as="points">
              <mxPoint x="120" y="300" />
            </Array>
          </mxGeometry>
        </mxCell>
        <mxCell id="sE7RtL886GrFwcUDmTVV-10" value="数据源连接参数管理模块" style="shape=umlLifeline;perimeter=lifelinePerimeter;container=1;collapsible=0;recursiveResize=0;rounded=0;shadow=0;strokeWidth=1;" parent="1" vertex="1">
          <mxGeometry x="320" y="80" width="130" height="300" as="geometry" />
        </mxCell>
        <mxCell id="sE7RtL886GrFwcUDmTVV-11" value="" style="points=[];perimeter=orthogonalPerimeter;rounded=0;shadow=0;strokeWidth=1;" parent="sE7RtL886GrFwcUDmTVV-10" vertex="1">
          <mxGeometry x="60" y="80" width="10" height="200" as="geometry" />
        </mxCell>
        <mxCell id="sE7RtL886GrFwcUDmTVV-13" value="" style="html=1;points=[];perimeter=orthogonalPerimeter;" parent="sE7RtL886GrFwcUDmTVV-10" vertex="1">
          <mxGeometry x="65" y="120" width="10" height="40" as="geometry" />
        </mxCell>
        <mxCell id="sE7RtL886GrFwcUDmTVV-14" value="数据源信息验证" style="edgeStyle=orthogonalEdgeStyle;html=1;align=left;spacingLeft=2;endArrow=block;rounded=0;entryX=1;entryY=0;" parent="sE7RtL886GrFwcUDmTVV-10" target="sE7RtL886GrFwcUDmTVV-13" edge="1">
          <mxGeometry relative="1" as="geometry">
            <mxPoint x="70" y="100" as="sourcePoint" />
            <Array as="points">
              <mxPoint x="100" y="100" />
            </Array>
          </mxGeometry>
        </mxCell>
        <mxCell id="sE7RtL886GrFwcUDmTVV-16" value="数据源监控信息查询" style="html=1;verticalAlign=bottom;endArrow=block;rounded=0;" parent="sE7RtL886GrFwcUDmTVV-10" target="3nuBFxr9cyL0pnOWT2aG-5" edge="1">
          <mxGeometry width="80" relative="1" as="geometry">
            <mxPoint x="70" y="180" as="sourcePoint" />
            <mxPoint x="130" y="180" as="targetPoint" />
          </mxGeometry>
        </mxCell>
        <mxCell id="sE7RtL886GrFwcUDmTVV-18" value="监控信息" style="html=1;verticalAlign=bottom;endArrow=open;dashed=1;endSize=8;rounded=0;" parent="1" edge="1">
          <mxGeometry relative="1" as="geometry">
            <mxPoint x="570" y="358" as="sourcePoint" />
            <mxPoint x="384.5" y="358" as="targetPoint" />
          </mxGeometry>
        </mxCell>
        <mxCell id="sE7RtL886GrFwcUDmTVV-19" value="监控信息" style="html=1;verticalAlign=bottom;endArrow=open;dashed=1;endSize=8;rounded=0;exitX=0.04;exitY=1.004;exitDx=0;exitDy=0;exitPerimeter=0;" parent="1" edge="1">
          <mxGeometry relative="1" as="geometry">
            <mxPoint x="380.4000000000001" y="358.55999999999995" as="sourcePoint" />
            <mxPoint x="169.5" y="358.55999999999995" as="targetPoint" />
          </mxGeometry>
        </mxCell>
        <mxCell id="FTmbvxLNtihJsYFcyBBe-1" value="数据存储节点" style="shape=umlLifeline;perimeter=lifelinePerimeter;container=1;collapsible=0;recursiveResize=0;rounded=0;shadow=0;strokeWidth=1;" vertex="1" parent="1">
          <mxGeometry x="610" y="480" width="170" height="510" as="geometry" />
        </mxCell>
        <mxCell id="FTmbvxLNtihJsYFcyBBe-2" value="" style="points=[];perimeter=orthogonalPerimeter;rounded=0;shadow=0;strokeWidth=1;" vertex="1" parent="FTmbvxLNtihJsYFcyBBe-1">
          <mxGeometry x="80" y="100" width="10" height="190" as="geometry" />
        </mxCell>
        <mxCell id="FTmbvxLNtihJsYFcyBBe-9" value="" style="html=1;points=[];perimeter=orthogonalPerimeter;" vertex="1" parent="FTmbvxLNtihJsYFcyBBe-1">
          <mxGeometry x="85" y="145" width="10" height="40" as="geometry" />
        </mxCell>
        <mxCell id="FTmbvxLNtihJsYFcyBBe-10" value="数据源性能统计" style="edgeStyle=orthogonalEdgeStyle;html=1;align=left;spacingLeft=2;endArrow=block;rounded=0;entryX=1;entryY=0;" edge="1" target="FTmbvxLNtihJsYFcyBBe-9" parent="FTmbvxLNtihJsYFcyBBe-1">
          <mxGeometry relative="1" as="geometry">
            <mxPoint x="90" y="125" as="sourcePoint" />
            <Array as="points">
              <mxPoint x="120" y="125" />
            </Array>
          </mxGeometry>
        </mxCell>
        <mxCell id="FTmbvxLNtihJsYFcyBBe-11" value="" style="html=1;points=[];perimeter=orthogonalPerimeter;" vertex="1" parent="FTmbvxLNtihJsYFcyBBe-1">
          <mxGeometry x="85" y="230" width="10" height="40" as="geometry" />
        </mxCell>
        <mxCell id="FTmbvxLNtihJsYFcyBBe-12" value="服务器性能统计" style="edgeStyle=orthogonalEdgeStyle;html=1;align=left;spacingLeft=2;endArrow=block;rounded=0;entryX=1;entryY=0;" edge="1" target="FTmbvxLNtihJsYFcyBBe-11" parent="FTmbvxLNtihJsYFcyBBe-1">
          <mxGeometry relative="1" as="geometry">
            <mxPoint x="90" y="210" as="sourcePoint" />
            <Array as="points">
              <mxPoint x="120" y="210" />
            </Array>
          </mxGeometry>
        </mxCell>
        <mxCell id="FTmbvxLNtihJsYFcyBBe-13" value="性能监控信息" style="html=1;verticalAlign=bottom;endArrow=open;dashed=1;endSize=8;rounded=0;" edge="1" parent="FTmbvxLNtihJsYFcyBBe-1">
          <mxGeometry relative="1" as="geometry">
            <mxPoint x="80" y="280" as="sourcePoint" />
            <mxPoint x="-130" y="280" as="targetPoint" />
          </mxGeometry>
        </mxCell>
        <mxCell id="FTmbvxLNtihJsYFcyBBe-3" value="磁盘" style="shape=umlLifeline;perimeter=lifelinePerimeter;container=1;collapsible=0;recursiveResize=0;rounded=0;shadow=0;strokeWidth=1;" vertex="1" parent="1">
          <mxGeometry x="690" y="80" width="80" height="300" as="geometry" />
        </mxCell>
        <mxCell id="FTmbvxLNtihJsYFcyBBe-4" value="" style="points=[];perimeter=orthogonalPerimeter;rounded=0;shadow=0;strokeWidth=1;" vertex="1" parent="FTmbvxLNtihJsYFcyBBe-3">
          <mxGeometry x="35" y="200" width="10" height="50" as="geometry" />
        </mxCell>
        <mxCell id="FTmbvxLNtihJsYFcyBBe-6" value="监控信息" style="html=1;verticalAlign=bottom;endArrow=open;dashed=1;endSize=8;rounded=0;" edge="1" parent="1" target="3nuBFxr9cyL0pnOWT2aG-5">
          <mxGeometry relative="1" as="geometry">
            <mxPoint x="730" y="330" as="sourcePoint" />
            <mxPoint x="650" y="330" as="targetPoint" />
          </mxGeometry>
        </mxCell>
        <mxCell id="FTmbvxLNtihJsYFcyBBe-22" value="磁盘" style="shape=umlLifeline;perimeter=lifelinePerimeter;container=1;collapsible=0;recursiveResize=0;rounded=0;shadow=0;strokeWidth=1;" vertex="1" parent="1">
          <mxGeometry x="830" y="480" width="170" height="510" as="geometry" />
        </mxCell>
        <mxCell id="FTmbvxLNtihJsYFcyBBe-26" value="" style="html=1;points=[];perimeter=orthogonalPerimeter;" vertex="1" parent="FTmbvxLNtihJsYFcyBBe-22">
          <mxGeometry x="80" y="400" width="10" height="80" as="geometry" />
        </mxCell>
        <mxCell id="FTmbvxLNtihJsYFcyBBe-32" value="" style="html=1;points=[];perimeter=orthogonalPerimeter;" vertex="1" parent="FTmbvxLNtihJsYFcyBBe-22">
          <mxGeometry x="85" y="430" width="10" height="40" as="geometry" />
        </mxCell>
        <mxCell id="FTmbvxLNtihJsYFcyBBe-33" value="存储" style="edgeStyle=orthogonalEdgeStyle;html=1;align=left;spacingLeft=2;endArrow=block;rounded=0;entryX=1;entryY=0;" edge="1" target="FTmbvxLNtihJsYFcyBBe-32" parent="FTmbvxLNtihJsYFcyBBe-22">
          <mxGeometry relative="1" as="geometry">
            <mxPoint x="90" y="410" as="sourcePoint" />
            <Array as="points">
              <mxPoint x="120" y="410" />
            </Array>
          </mxGeometry>
        </mxCell>
      </root>
    </mxGraphModel>
  </diagram>
</mxfile>
